Hanif_Shallow_7_5_grf.mot
version=1
nRows=32
nColumns=19
inDegrees=yes
endheader
time	right_ground_force_vx	right_ground_force_vy	right_ground_force_vz	right_ground_force_px	right_ground_force_py	right_ground_force_pz	right_ground_torque_x	right_ground_torque_y	right_ground_torque_z	left_ground_force_vx	left_ground_force_vy	left_ground_force_vz	left_ground_force_px	left_ground_force_py	left_ground_force_pz	left_ground_torque_x	left_ground_torque_y	left_ground_torque_z
5.200000	9.168290	318.313000	76.367400	0.193186	0.000000	-1.435090	-22.375400	7.937040	-0.545726	-11.802800	254.363000	-71.217800	0.214298	0.000000	-0.979840	19.768700	-2.888480	4.984540
5.205000	9.204490	314.920000	75.859300	0.192600	0.000000	-1.433920	-22.508200	7.812960	-0.743518	-12.141200	254.230000	-71.066500	0.214627	0.000000	-0.979842	19.767200	-2.875980	5.073910
5.210000	8.872240	314.180000	75.881100	0.192954	0.000000	-1.434940	-22.144000	7.554960	-0.670463	-11.500700	252.733000	-70.798000	0.214625	0.000000	-0.978350	19.256100	-2.770130	5.005100
5.215000	8.507410	310.481000	75.093400	0.193084	0.000000	-1.434440	-22.043300	7.502020	-0.605694	-12.086300	249.682000	-70.665700	0.214682	0.000000	-0.980063	19.468800	-2.731740	4.996230
5.220000	8.163520	307.801000	74.987600	0.193961	0.000000	-1.433630	-22.111400	7.283650	-0.338551	-11.637300	248.629000	-70.626100	0.214348	0.000000	-0.979489	19.232400	-2.689090	4.871940
5.225000	7.595500	304.594000	74.277400	0.194295	0.000000	-1.433220	-22.014200	7.098870	-0.244836	-12.050800	250.174000	-70.327400	0.215304	0.000000	-0.978381	19.083600	-2.689580	5.142570
5.230000	6.974640	304.427000	73.823400	0.194973	0.000000	-1.432310	-22.296300	6.922760	-0.066354	-12.316500	247.399000	-69.531800	0.215468	0.000000	-0.979634	19.183200	-2.477640	5.090730
5.235000	6.339500	299.260000	72.909300	0.195732	0.000000	-1.431720	-22.104200	6.687410	0.161529	-12.326700	246.974000	-69.013200	0.216917	0.000000	-0.979707	19.168300	-2.366230	5.429840
5.240000	5.517710	300.007000	72.311900	0.196263	0.000000	-1.432650	-21.900200	6.449180	0.270537	-12.497700	244.850000	-69.306500	0.215332	0.000000	-0.978676	18.752300	-2.359780	4.990380
5.245000	5.251600	296.810000	71.945000	0.197620	0.000000	-1.432550	-21.699300	6.290760	0.683351	-12.193100	245.880000	-68.680400	0.216631	0.000000	-0.978365	18.749700	-2.352380	5.322150
5.250000	5.005670	293.889000	71.495700	0.197642	0.000000	-1.431640	-21.758700	6.130880	0.666875	-12.266200	243.709000	-67.612500	0.216102	0.000000	-0.979565	18.877200	-2.293920	5.123070
5.255000	4.266770	293.121000	70.558500	0.198179	0.000000	-1.432040	-21.601100	5.738680	0.740580	-12.910900	243.304000	-67.752900	0.216313	0.000000	-0.978780	18.667700	-2.250560	5.175890
5.260000	4.006200	290.675000	70.742600	0.198721	0.000000	-1.430790	-21.789200	5.718960	0.924628	-12.804800	242.160000	-67.165000	0.217244	0.000000	-0.978750	18.573400	-2.219650	5.381690
5.265000	4.080750	291.625000	70.519600	0.198986	0.000000	-1.430780	-21.863200	5.593150	0.965236	-12.626400	240.892000	-66.737600	0.216186	0.000000	-0.978743	18.460900	-2.066810	5.036020
5.270000	3.815630	289.829000	70.007100	0.199048	0.000000	-1.431200	-21.613100	5.342460	0.929408	-13.162000	239.822000	-66.719400	0.216769	0.000000	-0.977850	18.181600	-2.101900	5.191550
5.275000	3.887170	287.252000	69.602300	0.199272	0.000000	-1.430550	-21.608600	5.207990	0.969584	-12.494200	239.239000	-66.326500	0.216554	0.000000	-0.977790	18.099900	-1.935680	5.060540
5.280000	4.059820	286.845000	69.340500	0.199911	0.000000	-1.430360	-21.630500	5.064810	1.123030	-12.656600	238.012000	-66.518900	0.216740	0.000000	-0.976969	17.824100	-2.060380	5.133090
5.285000	3.483940	282.751000	68.375400	0.200077	0.000000	-1.430260	-21.356400	4.973890	1.162060	-12.603000	237.437000	-66.083300	0.216566	0.000000	-0.978035	18.027500	-1.941780	5.041690
5.290000	3.357360	280.953000	68.523800	0.201048	0.000000	-1.430150	-21.257200	4.712950	1.399340	-11.948300	235.781000	-66.444400	0.216805	0.000000	-0.977898	17.860900	-1.961390	5.081940
5.295000	2.792820	281.532000	67.448300	0.201809	0.000000	-1.430750	-21.141500	4.491530	1.564200	-11.743300	235.316000	-65.776100	0.216520	0.000000	-0.977785	17.791800	-1.914950	4.971890
5.300000	1.990090	279.768000	67.191600	0.201437	0.000000	-1.429760	-21.299100	4.274730	1.415340	-12.328200	237.892000	-66.177000	0.216655	0.000000	-0.978090	18.056800	-1.707860	5.001210
5.305000	2.787610	278.000000	66.316800	0.202546	0.000000	-1.429180	-21.315400	4.065290	1.666640	-12.198000	238.059000	-66.003000	0.217715	0.000000	-0.977405	17.908000	-1.731290	5.273020
5.310000	2.424090	277.835000	65.735100	0.202658	0.000000	-1.429780	-21.142800	3.870160	1.651660	-12.093400	237.262000	-65.926100	0.217724	0.000000	-0.978293	18.055100	-1.668490	5.246530
5.315000	2.272900	274.534000	64.913700	0.202779	0.000000	-1.429160	-21.065800	3.698130	1.638610	-13.030900	238.633000	-65.707800	0.217961	0.000000	-0.977340	17.937400	-1.466200	5.281460
5.320000	1.988760	273.120000	64.728400	0.203024	0.000000	-1.428490	-21.143200	3.487260	1.662340	-13.222700	237.391000	-65.914900	0.217889	0.000000	-0.977759	17.945800	-1.399270	5.237060
5.325000	1.527770	270.572000	64.060700	0.202987	0.000000	-1.428240	-21.019800	3.354790	1.619630	-13.143800	237.421000	-64.832700	0.218459	0.000000	-0.977557	17.898500	-1.384650	5.354980
5.330000	2.350350	269.705000	64.024800	0.202904	0.000000	-1.427720	-21.085000	3.110060	1.522070	-13.352900	235.772000	-64.488700	0.219269	0.000000	-0.977259	17.701400	-1.175490	5.475620
5.335000	2.505560	268.826000	62.218700	0.203585	0.000000	-1.428570	-20.785500	3.058700	1.678290	-13.475800	234.850000	-64.005300	0.218684	0.000000	-0.976597	17.474500	-1.129060	5.291790
5.340000	2.414750	266.289000	62.118600	0.204249	0.000000	-1.428560	-20.594900	2.769530	1.795500	-13.331000	230.590000	-62.988600	0.218291	0.000000	-0.977382	17.339000	-1.095790	5.102570
5.345000	2.319540	263.594000	61.024300	0.203646	0.000000	-1.427590	-20.643800	2.626470	1.578490	-12.939700	229.563000	-62.103500	0.218244	0.000000	-0.978055	17.407000	-1.037490	5.038170
5.350000	2.102910	260.641000	59.816100	0.204237	0.000000	-1.427880	-20.339900	2.409000	1.677660	-12.320900	228.912000	-61.618500	0.217337	0.000000	-0.975730	16.812500	-1.079190	4.788030
5.355000	1.765660	255.768000	59.026600	0.203441	0.000000	-1.428400	-19.832400	2.239230	1.412120	-12.427600	226.479000	-61.109100	0.217066	0.000000	-0.975398	16.558000	-0.999585	4.658870
